<svg xmlns="http://www.w3.org/2000/svg" xmlns:xlink="http://www.w3.org/1999/xlink" viewBox="0 0 383.28 407.9"><defs><style>.cls-1{fill:url(#linear-gradient);}.cls-2{fill:url(#linear-gradient-2);}</style><linearGradient id="linear-gradient" x1="1086.38" y1="1243.8" x2="-47.56" y2="94.63" gradientTransform="translate(52.65 459.62) rotate(-117.83)" gradientUnits="userSpaceOnUse"><stop offset="0" stop-color="#c8ff00"/><stop offset="0.04" stop-color="#c3fc00"/><stop offset="0.08" stop-color="#b4f301"/><stop offset="0.13" stop-color="#9ae302"/><stop offset="0.19" stop-color="#77ce04"/><stop offset="0.24" stop-color="#4ab306"/><stop offset="0.3" stop-color="#149208"/><stop offset="0.32" stop-color="#008609"/><stop offset="0.34" stop-color="#25980a"/><stop offset="0.38" stop-color="#55b00b"/><stop offset="0.42" stop-color="#7fc50c"/><stop offset="0.46" stop-color="#a3d70c"/><stop offset="0.5" stop-color="#c0e60d"/><stop offset="0.55" stop-color="#d7f10d"/><stop offset="0.6" stop-color="#e7f90e"/><stop offset="0.66" stop-color="#f0fe0e"/><stop offset="0.73" stop-color="#f3ff0e"/><stop offset="0.76" stop-color="#d3f315"/><stop offset="0.85" stop-color="#7ad227"/><stop offset="0.92" stop-color="#38ba35"/><stop offset="0.97" stop-color="#0fab3e"/><stop offset="1" stop-color="#00a541"/></linearGradient><linearGradient id="linear-gradient-2" x1="1057.49" y1="1282.51" x2="-76.43" y2="133.36" xlink:href="#linear-gradient"/></defs><g id="Background"><path class="cls-1" d="M127.09,69.57c101.55-53.62,227.38-14.82,281,86.82a205.88,205.88,0,0,1,24,98.85c-82-154.58-244.64-162-244.64-162l9.33-28.15-40,33.48c4.87.8,30,40.63,30,40.63l-1-32.31s21.65,3,29.64,5.67C319,147.09,371,221.76,381.54,297.17a265.64,265.64,0,0,1-66.38,11.39,273.19,273.19,0,0,1-114.62-19,273.54,273.54,0,0,1-142-127.3,224.2,224.2,0,0,1-9.73-20.68A206.83,206.83,0,0,1,127.09,69.57Z" transform="translate(-48.84 -45.46)"/><path class="cls-2" d="M195.42,427.92s102.29,6.92,154.13-99.52l4.94-.67a128.25,128.25,0,0,1-3,17.68c-18.67,76-95.34,122.5-171.31,103.83a140.65,140.65,0,0,1-63.63-34.58c.78-5.05,1.78-10.12,3.08-15.24A186,186,0,0,1,178.37,303a301.81,301.81,0,0,0,135.9,28.41C302.46,371.41,270.7,411.52,195.42,427.92Z" transform="translate(-48.84 -45.46)"/></g><g id="Layer_1" data-name="Layer 1"><text x="-48.84" y="-45.46"/></g></svg>