<svg xmlns="http://www.w3.org/2000/svg" xmlns:xlink="http://www.w3.org/1999/xlink" viewBox="0 0 383.28 407.9"><defs><style>.cls-1{fill:url(#linear-gradient);}.cls-2{fill:url(#linear-gradient-2);}</style><linearGradient id="linear-gradient" x1="1037.54" y1="1198.34" x2="-96.41" y2="49.17" gradientTransform="translate(21.2 349.74) rotate(-117.83)" gradientUnits="userSpaceOnUse"><stop offset="0" stop-color="#c8ff00"/><stop offset="0.04" stop-color="#c3fc00"/><stop offset="0.08" stop-color="#b4f301"/><stop offset="0.13" stop-color="#9ae302"/><stop offset="0.19" stop-color="#77ce04"/><stop offset="0.24" stop-color="#4ab306"/><stop offset="0.3" stop-color="#149208"/><stop offset="0.32" stop-color="#008609"/><stop offset="0.34" stop-color="#25980a"/><stop offset="0.38" stop-color="#55b00b"/><stop offset="0.42" stop-color="#7fc50c"/><stop offset="0.46" stop-color="#a3d70c"/><stop offset="0.5" stop-color="#c0e60d"/><stop offset="0.55" stop-color="#d7f10d"/><stop offset="0.6" stop-color="#e7f90e"/><stop offset="0.66" stop-color="#f0fe0e"/><stop offset="0.73" stop-color="#f3ff0e"/><stop offset="0.76" stop-color="#d3f315"/><stop offset="0.85" stop-color="#7ad227"/><stop offset="0.92" stop-color="#38ba35"/><stop offset="0.97" stop-color="#0fab3e"/><stop offset="1" stop-color="#00a541"/></linearGradient><linearGradient id="linear-gradient-2" x1="1008.65" y1="1237.05" x2="-125.28" y2="87.9" xlink:href="#linear-gradient"/></defs><g id="Layer_2" data-name="Layer 2"><g id="Background"><path class="cls-1" d="M78.25,24.11c101.55-53.62,227.37-14.82,281,86.82a205.87,205.87,0,0,1,24,98.84c-82-154.57-244.64-162-244.64-162L148,19.65,108,53.12c4.88.81,30,40.64,30,40.64l-1-32.31s21.65,3,29.65,5.66C270.16,101.63,322.17,176.3,332.7,251.71a266.17,266.17,0,0,1-66.39,11.39,273.33,273.33,0,0,1-114.61-19,273.57,273.57,0,0,1-142-127.3A224.1,224.1,0,0,1,0,96.1,206.76,206.76,0,0,1,78.25,24.11Z"/><path class="cls-2" d="M146.57,382.46s102.3,6.92,154.14-99.52l4.93-.67a128.21,128.21,0,0,1-3,17.68c-18.68,76-95.35,122.5-171.32,103.83A140.61,140.61,0,0,1,67.73,369.2c.78-5.05,1.78-10.12,3.08-15.24a186.06,186.06,0,0,1,58.71-96.47,301.87,301.87,0,0,0,135.9,28.41C253.62,326,221.85,366.05,146.57,382.46Z"/></g></g></svg>